<?xml version="1.0" encoding="UTF-8"?>
<svg id="Layer_2" data-name="Layer 2" xmlns="http://www.w3.org/2000/svg" version="1.1" viewBox="0 0 1000 1000">
  <defs>
    <style>
      .cls-1 {
        fill: #f09a5e;
      }

      .cls-1, .cls-2 {
        stroke-width: 0px;
      }

      .cls-2 {
        fill: #49268f;
      }
    </style>
  </defs>
  <g>
    <path class="cls-2" d="M321.9,490.9c3.1-6.2,7.3-11,12.7-14.3,5.3-3.3,11.3-5,17.9-5,5.6,0,10.6,1.1,14.8,3.4,4.2,2.3,7.5,5.3,9.8,9v-11.3s24.5,0,24.5,0v79.8s-24.5,0-24.5,0v-11.3c-2.4,3.7-5.7,6.7-9.9,9-4.2,2.3-9.2,3.4-14.8,3.4-6.5,0-12.4-1.7-17.7-5.1-5.3-3.4-9.6-8.2-12.7-14.4-3.1-6.2-4.6-13.5-4.6-21.7,0-8.2,1.5-15.4,4.6-21.6M372,498.2c-3.4-3.5-7.5-5.3-12.4-5.3-4.9,0-9,1.7-12.4,5.2-3.4,3.5-5.1,8.3-5.1,14.4,0,6.1,1.7,10.9,5.1,14.5,3.4,3.6,7.5,5.4,12.4,5.4s9-1.8,12.4-5.3c3.4-3.5,5.1-8.3,5.1-14.4,0-6.1-1.7-10.9-5.1-14.4"/>
    <path class="cls-2" d="M462.6,531.8v20.7s-12.4,0-12.4,0c-8.9,0-15.8-2.2-20.7-6.5-5-4.3-7.4-11.4-7.4-21.2v-31.8s-9.7,0-9.7,0v-20.3s9.7,0,9.7,0v-19.5s24.5,0,24.5,0v19.5s16,0,16,0v20.3s-16,0-16,0v32c0,2.4.6,4.1,1.7,5.1,1.1,1.1,3.1,1.6,5.7,1.6h8.7Z"/>
    <path class="cls-2" d="M546.1,481c5.5,6.1,8.3,14.4,8.3,25v46.6s-24.3,0-24.3,0v-43.3c0-5.3-1.4-9.5-4.1-12.4-2.8-3-6.5-4.4-11.2-4.4-4.7,0-8.4,1.5-11.2,4.4-2.8,3-4.1,7.1-4.1,12.4v43.3s-24.5,0-24.5,0v-105.9s24.5,0,24.5,0v36.8c2.5-3.5,5.9-6.3,10.2-8.4,4.3-2.1,9.1-3.1,14.4-3.1,9.2,0,16.5,3,22,9.1"/>
    <path class="cls-2" d="M643.9,518.5h-55.4c.4,5,2,8.8,4.8,11.4,2.8,2.6,6.3,3.9,10.4,3.9,6.1,0,10.3-2.6,12.7-7.7h26c-1.3,5.2-3.7,10-7.2,14.2-3.5,4.2-7.8,7.5-13.1,9.9-5.2,2.4-11.1,3.6-17.6,3.6-7.8,0-14.8-1.7-20.9-5-6.1-3.3-10.9-8.1-14.3-14.3-3.4-6.2-5.2-13.4-5.1-21.7,0-8.3,1.7-15.5,5.1-21.7,3.4-6.2,8.1-11,14.2-14.3,6.1-3.3,13.1-5,21-5,7.7,0,14.6,1.6,20.6,4.9,6,3.2,10.7,7.9,14.1,13.9,3.4,6,5.1,13,5.1,21,0,2.3-.1,4.7-.4,7.2M619.3,504.9c0-4.2-1.4-7.5-4.3-10-2.9-2.5-6.4-3.7-10.7-3.7s-7.6,1.2-10.4,3.6c-2.8,2.4-4.6,5.8-5.2,10.2h30.6Z"/>
    <path class="cls-2" d="M689.4,475.7c4.3-2.5,9.1-3.8,14.3-3.8v25.9s-6.7,0-6.7,0c-6.1,0-10.7,1.3-13.7,3.9-3.1,2.6-4.6,7.2-4.6,13.8v37s-24.5,0-24.5,0v-79.8s24.5,0,24.5,0v13.3c2.9-4.4,6.4-7.8,10.7-10.4"/>
    <path class="cls-2" d="M305.7,480.9h-28.3c-2-3.5-4.6-6.3-8.3-8.1-3.5-1.8-7.7-2.8-12.5-2.8-8.3,0-14.9,2.8-19.9,8.3-5.2,5.3-7.5,12.7-7.5,21.7,0,9.8,2.6,17.3,7.9,22.8,5.2,5.5,12.3,8.1,21.7,8.1,6.1,0,11.6-1.8,15.6-5.3,3.5-3.1,5.9-7.5,6.6-13.3h-29.4s0-19,0-19h56s0,10.1,0,10.1c0,17.5-6.1,30-15.5,38.3-9.4,8.1-22.1,12-35.3,12-10.5,0-19.7-2.4-27.8-6.8-8.3-4.6-14.5-11-19.1-19.1-4.6-8.1-6.8-17.3-6.8-27.8,0-10.3,2.2-19.7,6.8-27.8,4.6-8.1,10.9-14.5,19-19.1,8.1-4.4,17.5-6.8,27.8-6.8,12.7,0,23.2,3.1,32,9.2,8.7,6.1,14.4,14.5,17.1,25.4"/>
  </g>
  <path class="cls-1" d="M797,552.4h-24.8s0-41.1,0-41.1c0-9.4-7.6-17-17-17-9.4,0-17,7.6-17,17v41.1s-24.8,0-24.8,0v-41.1c0-23,18.7-41.8,41.8-41.8,23,0,41.8,18.7,41.8,41.8v41.1Z"/>
</svg>